<?xml version="1.0" encoding="utf-8"?>
<!-- Generator: Adobe Illustrator 19.1.1, SVG Export Plug-In . SVG Version: 6.00 Build 0)  -->
<svg version="1.1" xmlns="http://www.w3.org/2000/svg" xmlns:xlink="http://www.w3.org/1999/xlink" x="0px" y="0px"
	 viewBox="0 0 400 400" style="enable-background:new 0 0 400 400;" xml:space="preserve">
<style type="text/css">
	.st0{display:none;}
	.st1{display:inline;}
	.st2{font-family:'nevis-Bold';}
	.st3{font-size:72px;}
	.st4{display:inline;fill:#C1272D;}
	.st5{fill:#A04040;}
	.st6{fill:#FFFFFF;}
</style>
<g id="Layer_3" class="st0">
	<g class="st1">
		<path d="M174.146,173.633h12.375l12.234,17.227l12.515-17.227h12.094L204.028,200v26.367h-10.546V200L174.146,173.633z"/>
	</g>
	<g class="st1">
		<path d="M359.238,173.633v9.844H341.66v42.891h-10.547v-42.891h-17.578v-9.844H359.238z"/>
	</g>
	<g class="st1">
		<path d="M76.826,203.375l13.148,22.992H77.881L65.259,204.57h-9.633v21.797H45.08v-52.734h22.992
			c12.305,0,18.457,5.063,18.457,15.188C86.529,196.438,83.295,201.289,76.826,203.375z M55.627,194.727h14.766
			c4.242-0.07,6.421-2.004,6.539-5.801c-0.118-3.468-2.262-5.273-6.434-5.414H55.627V194.727z"/>
	</g>
	<g class="st1">
		<path d="M86.111,34.633v9.844H68.533v42.891H57.986V44.477H40.408v-9.844H86.111z"/>
	</g>
	<g class="st1">
		<path d="M179.982,87.367V34.668l38.742-0.035v9.844h-28.195v11.25h21.128v9.809h-21.128v11.988h28.125v9.844H179.982z"/>
	</g>
	<g class="st1">
		<path d="M347.953,64.375l13.148,22.992h-12.094L336.386,65.57h-9.633v21.797h-10.547V34.633h22.992
			c12.305,0,18.457,5.063,18.457,15.188C357.656,57.438,354.421,62.289,347.953,64.375z M326.753,55.727h14.766
			c4.242-0.07,6.422-2.004,6.539-5.801c-0.117-3.468-2.262-5.273-6.434-5.414h-14.871V55.727z"/>
	</g>
	<g class="st1">
		<path d="M75.037,308.907c2.695,1.172,5.215,2.93,7.559,5.273l-7.031,7.031c-2.344-2.813-5.625-4.219-9.844-4.219
			s-6.914,0.996-8.086,2.988c-1.172,1.992-1.172,3.691,0,5.098c1.172,1.406,3.867,2.461,8.086,3.164
			c4.453,0.469,8.496,1.934,12.129,4.395c3.633,2.461,5.449,6.387,5.449,11.777c0,4.219-1.939,7.852-5.818,10.898
			c-3.879,3.047-8.397,4.57-13.553,4.57c-4.899,0-8.988-0.703-12.27-2.109c-3.282-1.406-6.094-3.281-8.438-5.625l7.031-7.031
			c2.343,2.813,6.328,4.453,11.953,4.922c4.687,0,7.611-0.996,8.771-2.988s1.16-3.984,0-5.977s-4.084-3.223-8.771-3.691
			c-4.219-0.469-8.086-1.758-11.602-3.867s-5.273-5.742-5.273-10.898c0-4.664,1.998-8.408,5.994-11.232
			c3.996-2.824,8.104-4.236,12.322-4.236C68.545,307.149,72.341,307.735,75.037,308.907z"/>
	</g>
	<g class="st1">
		<path d="M172.81,359.884l21.094-52.734h10.547l21.059,52.699l-11.215,0.035l-3.164-8.086h-23.907l-3.164,8.086H172.81z
			 M199.458,321.212l-8.016,20.039h15.821L199.458,321.212z"/>
	</g>
	<text transform="matrix(1 0 0 1 311.8831 359.8838)" class="st1 st2 st3">T</text>
	<g class="st1">
		<path d="M313.535,359.884v-9.844h17.578v-42.891h10.547v42.891h17.578v9.844H313.535z"/>
	</g>
</g>
<g id="Layer_4" class="st0">
	<rect x="0" y="0" class="st4" width="400" height="400"/>
</g>
<g id="Layer_1" class="st0">
	<rect x="50" y="50" class="st5" width="300" height="300"/>
</g>
<g id="Layer_2">
	<g>
		<path class="st6" d="M0,0v400h400V0H0z M309,174h45v9h-17v43h-11v-43h-17V174z M180,39.668l39-0.035V49h-28v12h21v10h-21v12h28v9
			h-39V39.668z M186.766,174L199,191.227L211.515,174h12.094L204,200v26h-10v-26l-19.609-26H186.766z M46,40h45v9H74v43H63V49H46V40
			z M80.725,357.314c-3.879,3.047-8.397,4.57-13.553,4.57c-4.899,0-8.988-0.703-12.27-2.109c-3.282-1.406-6.094-3.281-8.438-5.625
			l7.031-7.031c2.343,2.813,6.328,4.453,11.953,4.922c4.688,0,7.611-0.996,8.771-2.988s1.16-3.984,0-5.977s-4.084-3.223-8.771-3.691
			c-4.219-0.469-8.086-1.758-11.602-3.867s-5.273-5.742-5.273-10.898c0-4.664,1.998-8.408,5.994-11.232
			c3.996-2.824,8.104-4.236,12.322-4.236c4.898,0,8.695,0.586,11.391,1.758c2.695,1.172,5.215,2.93,7.559,5.273l-7.031,7.031
			c-2.344-2.813-5.625-4.219-9.844-4.219s-6.914,0.996-8.086,2.988c-1.172,1.992-1.172,3.691,0,5.098
			c1.172,1.406,3.867,2.461,8.086,3.164c4.453,0.469,8.496,1.934,12.129,4.395c3.633,2.461,5.449,6.387,5.449,11.777
			C86.543,350.634,84.604,354.267,80.725,357.314z M81.125,226l-12.621-21H59v21H48v-52h23.317c12.305,0,18.457,4.879,18.457,15.004
			c0,7.617-3.234,12.193-9.703,14.279L93.219,226H81.125z M214.54,361.985L211.375,354h-23.907l-3.164,8h-11.25l21.094-53h10.547
			l21.059,52.825L214.54,361.985z M354,319h-17v33h17v10h-45v-10h17v-33h-17v-10h45V319z M344.252,92l-12.621-21H322v21h-11V40
			h23.444c12.305,0,18.457,4.879,18.457,15.004c0,7.617-3.234,12.193-9.703,14.279L356.346,92H344.252z"/>
		<polygon class="st6" points="191.688,343 207.508,343 199.703,322.961 		"/>
		<path class="st6" d="M73.743,184H59v11h14.637c4.242,0,6.421-1.896,6.539-5.693C80.059,185.838,77.914,184,73.743,184z"/>
		<path class="st6" d="M336.87,50H322v11h14.764c4.242,0,6.422-1.896,6.539-5.693C343.186,51.838,341.042,50,336.87,50z"/>
	</g>
</g>
</svg>
