<?xml version="1.0" encoding="utf-8"?>
<!-- Generator: Adobe Illustrator 19.1.1, SVG Export Plug-In . SVG Version: 6.00 Build 0)  -->
<svg version="1.1" id="Layer_1" xmlns="http://www.w3.org/2000/svg" xmlns:xlink="http://www.w3.org/1999/xlink" x="0px" y="0px"
	 viewBox="156 246 300 300" style="enable-background:new 156 246 300 300;" xml:space="preserve">
<style type="text/css">
	.st0{enable-background:new    ;}
	.st1{fill:#020202;}
</style>
<g id="Background_xA0_Image_1_">
</g>
<g id="Rectangle_1_1_" class="st0">
	<g id="Rectangle_1">
		<g>
			<path d="M452.85,249.15v293.7h-293.7v-293.7L452.85,249.15 M456,246H156v300h300V246L456,246z"/>
		</g>
	</g>
</g>
<g id="T_3_">
	<g>
		<path d="M209.88,281.74h-17.2v-3.26h38.08v3.26h-17.2V326h-3.67v-44.26H209.88z"/>
	</g>
</g>
<g id="E">
	<g>
		<path d="M292.96,301.37h27.88v3.33h-27.88v18.77h30.05V327h-33.66v-47.6h32.84v3.47h-29.24v18.5H292.96z"/>
	</g>
</g>
<g id="R_1_">
	<g>
		<path d="M418.36,326h-4.83l-16.45-18.02h-12.99V326h-3.67v-47.6c7,0,13.94,0,20.94,0c10.33,0,15.57,7.41,15.64,14.82
			c0.07,7.75-5.03,14.55-15.43,14.55L418.36,326z M384.09,304.51h16.86c8.3,0,11.97-4.69,12.04-11.35
			c0.07-5.58-3.74-11.35-11.63-11.35h-17.27L384.09,304.51L384.09,304.51z"/>
	</g>
</g>
<g id="R">
	<g>
		<path d="M233.36,420h-4.83l-16.45-18.02h-12.99V420h-3.67v-47.6c7,0,13.94,0,20.94,0c10.33,0,15.57,7.41,15.64,14.82
			c0.07,7.75-5.03,14.55-15.43,14.55L233.36,420z M199.09,398.51h16.86c8.29,0,11.97-4.69,12.03-11.35
			c0.07-5.58-3.74-11.35-11.63-11.35h-17.27v22.7H199.09z"/>
	</g>
</g>
<g id="Y">
	<g>
		<path d="M303.83,400.96l-18.56-28.49v-0.07h4.28l16.11,25.02l16.18-25.02h4.28v0.07l-18.63,28.49V420h-3.67v-19.04H303.83z"/>
	</g>
</g>
<g id="T_2_">
	<g>
		<path class="st1" d="M395.88,375.74h-17.2v-3.26h38.08v3.26h-17.2V420h-3.67v-44.26H395.88z"/>
	</g>
</g>
<g id="S">
	<g>
		<path class="st1" d="M226.22,475.58c-3.47-5.58-9.04-6.39-14.42-6.46c-5.58,0-14.41,2.04-14.41,9.65c0,6.05,6.53,7.48,14.55,8.98
			c9.18,1.77,18.7,3.4,18.7,13.67c-0.07,10.74-10.88,13.33-18.83,13.33c-7.41,0-15.84-3.06-19.51-10.33l3.26-1.63
			c2.92,5.78,10.4,8.63,16.25,8.63s15.16-1.63,15.16-10.06c0.07-7.14-7.82-8.7-15.64-10.2c-8.7-1.7-17.61-3.47-17.61-12.24
			c-0.2-10.06,10.27-13.19,18.09-13.19c6.8,0,12.71,1.09,17.41,8.09L226.22,475.58z"/>
	</g>
</g>
<g id="A">
	<g>
		<path class="st1" d="M325.22,514l-5.24-11.7h-28.42L286.4,514h-3.94l21.35-47.6h4.01l21.35,47.6H325.22z M318.56,498.91
			l-12.78-28.96L293,498.91H318.56z"/>
	</g>
</g>
<g id="T_1_">
	<g>
		<path class="st1" d="M395.88,468.74h-17.2v-3.26h38.08v3.26h-17.2V513h-3.67v-44.26H395.88z"/>
	</g>
</g>
<g id="T">
	<g>
		<path class="st1" d="M398.55,510.36h18.2v3.26h-38.08v-3.26h18.2V466.1h1.67v44.26H398.55z"/>
	</g>
</g>
</svg>
