<?xml version="1.0" encoding="utf-8"?>
<!-- Generator: Adobe Illustrator 19.1.1, SVG Export Plug-In . SVG Version: 6.00 Build 0)  -->
<svg version="1.1" id="Layer_1" xmlns="http://www.w3.org/2000/svg" xmlns:xlink="http://www.w3.org/1999/xlink" x="0px" y="0px"
	 viewBox="-74 76 300 300" style="enable-background:new -74 76 300 300;" xml:space="preserve">
<style type="text/css">
	.st0{enable-background:new    ;}
	.st1{fill:#FFFFFF;}
</style>
<g id="Background_xA0_Image_1_">
</g>
<g id="Rectangle_1_1_" class="st0">
	<g id="Rectangle_1">
		<g>
			<path class="st1" d="M222.85,79.15v293.7h-293.7V79.15L222.85,79.15 M226,76H-74v300h300V76L226,76z"/>
		</g>
	</g>
</g>
<g id="T_3_">
	<g>
		<path class="st1" d="M-20.12,111.74h-17.2v-3.26H0.76v3.26h-17.2V156h-3.67v-44.26H-20.12z"/>
	</g>
</g>
<g id="E">
	<g>
		<path class="st1" d="M62.96,131.37h27.88v3.33H62.96v18.77h30.05V157H59.35v-47.6h32.84v3.47H62.95v18.5H62.96z"/>
	</g>
</g>
<g id="R_1_">
	<g>
		<path class="st1" d="M188.36,156h-4.83l-16.45-18.02h-12.99V156h-3.67v-47.6c7,0,13.94,0,20.94,0c10.33,0,15.57,7.41,15.64,14.82
			c0.07,7.75-5.03,14.55-15.43,14.55L188.36,156z M154.09,134.51h16.86c8.3,0,11.97-4.69,12.04-11.35
			c0.07-5.58-3.74-11.35-11.63-11.35h-17.27L154.09,134.51L154.09,134.51z"/>
	</g>
</g>
<g id="R">
	<g>
		<path class="st1" d="M3.36,250h-4.83l-16.45-18.02h-12.99V250h-3.67v-47.6c7,0,13.94,0,20.94,0c10.33,0,15.57,7.41,15.64,14.82
			c0.07,7.75-5.03,14.55-15.43,14.55L3.36,250z M-30.91,228.51h16.86c8.29,0,11.97-4.69,12.03-11.35
			c0.07-5.58-3.74-11.35-11.63-11.35h-17.27v22.7H-30.91z"/>
	</g>
</g>
<g id="Y">
	<g>
		<path class="st1" d="M73.83,230.96l-18.56-28.49v-0.07h4.28l16.11,25.02l16.18-25.02h4.28v0.07l-18.63,28.49V250h-3.67v-19.04
			H73.83z"/>
	</g>
</g>
<g id="T_2_">
	<g>
		<path class="st1" d="M165.88,205.74h-17.2v-3.26h38.08v3.26h-17.2V250h-3.67v-44.26H165.88z"/>
	</g>
</g>
<g id="S">
	<g>
		<path class="st1" d="M-3.78,305.58c-3.47-5.58-9.04-6.39-14.42-6.46c-5.58,0-14.41,2.04-14.41,9.65c0,6.05,6.53,7.48,14.55,8.98
			c9.18,1.77,18.7,3.4,18.7,13.67c-0.07,10.74-10.88,13.33-18.83,13.33c-7.41,0-15.84-3.06-19.51-10.33l3.26-1.63
			c2.92,5.78,10.4,8.63,16.25,8.63s15.16-1.63,15.16-10.06c0.07-7.14-7.82-8.7-15.64-10.2c-8.7-1.7-17.61-3.47-17.61-12.24
			c-0.2-10.06,10.27-13.19,18.09-13.19c6.8,0,12.71,1.09,17.41,8.09L-3.78,305.58z"/>
	</g>
</g>
<g id="A">
	<g>
		<path class="st1" d="M95.22,344l-5.24-11.7H61.56L56.4,344h-3.94l21.35-47.6h4.01L99.17,344H95.22z M88.56,328.91l-12.78-28.96
			L63,328.91H88.56z"/>
	</g>
</g>
<g id="T_1_">
	<g>
		<path class="st1" d="M165.88,298.74h-17.2v-3.26h38.08v3.26h-17.2V343h-3.67v-44.26H165.88z"/>
	</g>
</g>
<g id="T">
	<g>
		<path class="st1" d="M168.55,340.36h18.2v3.26h-38.08v-3.26h18.2V296.1h1.67v44.26L168.55,340.36L168.55,340.36z"/>
	</g>
</g>
</svg>
